<svg width="120" height="100" viewBox="0 0 120 100" fill="none" xmlns="http://www.w3.org/2000/svg">
<g id="triangles" clip-path="url(#clip0_1_2)">
<g id="darkGroup">
<path id="dark1" d="M51.25 48.6195C52.5833 49.3893 52.5833 51.3138 51.25 52.0836L22 68.9711C20.6667 69.7409 19 68.7787 19 67.2391L19 33.4641C19 31.9245 20.6667 30.9622 22 31.732L51.25 48.6195Z" fill="#F72E82" fill-opacity="0.69"/>
<path id="dark2" d="M39 48.768C40.3333 49.5378 40.3333 51.4623 39 52.2321L9.75 69.1195C8.41666 69.8893 6.75 68.9271 6.75 67.3875L6.75 33.6125C6.75 32.0729 8.41667 31.1107 9.75 31.8805L39 48.768Z" fill="#F62E82" fill-opacity="0.69"/>
</g>
<g id="lightGroup">
<path id="light1" d="M39 48.768C40.3333 49.5378 40.3333 51.4623 39 52.2321L9.75 69.1195C8.41666 69.8893 6.75 68.9271 6.75 67.3875L6.75 33.6125C6.75 32.0729 8.41667 31.1107 9.75 31.8805L39 48.768Z" fill="#998CEB" fill-opacity="0.69"/>
</g>
</g>
<defs>
<clipPath id="clip0_1_2">
<rect width="120" height="100" fill="white"/>
</clipPath>
</defs>
</svg>
